<svg id="Layer_1" data-name="Layer 1" xmlns="http://www.w3.org/2000/svg" viewBox="0 0 118 118"><defs><style>.cls-1{fill:#e24965;}</style></defs><title>NAVLogo</title><path class="cls-1" d="M-342.45,2769.58h-1.7a4.39,4.39,0,0,0-4.39,4.39,4.38,4.38,0,0,0,4.39,4.38h6.08V2774A4.39,4.39,0,0,0-342.45,2769.58Z" transform="translate(402.37 -2704.37)"/><path class="cls-1" d="M-343.37,2704.37a59,59,0,0,0-59,59,58.72,58.72,0,0,0,10.8,34,118.24,118.24,0,0,0,9.07,10.13,58.77,58.77,0,0,0,39.13,14.85,59,59,0,0,0,59-59A59,59,0,0,0-343.37,2704.37Zm39.8,83.78a1.58,1.58,0,0,1-1.4,1h-10.69a1.57,1.57,0,0,1-1.4-1l-10.16-25.21v15.42H-324s0.94,0,.81.75h0c0,0.07-3.63,9.05-3.63,9.05a1.58,1.58,0,0,1-1.4,1h-9a0.8,0.8,0,0,1-.8-0.8v-8.66l-3.42,8.47a1.58,1.58,0,0,1-1.41,1h-1.17c-5.34,0-9.64-2.19-12.25-5.85l-2,4.86a1.57,1.57,0,0,1-1.4,1h-8.86a0.8,0.8,0,0,1-.8-0.8V2777c0-3.25-.12-4.35-0.61-5.27a2.28,2.28,0,0,0-1.16-1c-0.81-.38-1.24-0.43-3.31-0.43H-378v18a0.8,0.8,0,0,1-.8.8h-9.25a0.79,0.79,0,0,1-.8-0.8v-18h-3.58c-0.87,0-.49-0.95-0.49-0.95l3.81-9.45a1.11,1.11,0,0,1,1-.64h9.33a0.81,0.81,0,0,1,.8.8V2769l3.67-9.09a1.11,1.11,0,0,1,1-.64h4c3.43,0,5,.37,6.81,1.41a7.7,7.7,0,0,1,2.21,2c1.19,1.63,1.56,3.22,1.64,7.65,1.39-6.69,5.86-11.09,12.54-11.09,3,0,8.07,2,8.07,6.83v-6a0.81,0.81,0,0,1,.8-0.8h20.17a1.1,1.1,0,0,1,1,.64l5.8,17.77,5.81-17.77a1.09,1.09,0,0,1,1-.64H-293s1.13,0,.74,1Z" transform="translate(402.37 -2704.37)"/></svg>