<svg id="Over" xmlns="http://www.w3.org/2000/svg" viewBox="0 0 38.16 103.09"><defs><style>.cls-1{fill:#fff;}</style></defs><title>Person</title><path class="cls-1" d="M889.27,2538.42v26.07a3.72,3.72,0,0,0,3.72,3.72h0a3.72,3.72,0,0,0,3.72-3.72v-17H898v60.92a5,5,0,0,0,5,5h0a5,5,0,0,0,5-5V2579.1h0.92v29.27a5,5,0,0,0,5,5h0a5,5,0,0,0,5-5v-60.92H920v17a3.72,3.72,0,0,0,3.72,3.72h0a3.72,3.72,0,0,0,3.72-3.72v-26.07A7.45,7.45,0,0,0,920,2531H896.72A7.45,7.45,0,0,0,889.27,2538.42Z" transform="translate(-889.27 -2510.25)"/><circle class="cls-1" cx="19.08" cy="9.31" r="9.31"/></svg>