<svg id="Figure" xmlns="http://www.w3.org/2000/svg" viewBox="0 0 44 44"><defs><style>.cls-1{fill:#e24965;}.cls-2,.cls-5{fill:none;}.cls-3{fill:#ffce5f;}.cls-4{fill:#fff;}.cls-5{stroke:#c34056;stroke-miterlimit:10;stroke-width:2px;}</style></defs><title>NAVFulltelling</title><path class="cls-1" d="M-188,3134.84v-0.54a21.07,21.07,0,0,0-3.77-5v5.57a0.69,0.69,0,0,1-.69.69,0.69,0.69,0,0,1-.69-0.69v-4.06h-0.13v4.06a0.69,0.69,0,0,1-.69.69,0.69,0.69,0,0,1-.69-0.69v-8l-0.17-.12v2a0.52,0.52,0,0,1-.52.52,0.52,0.52,0,0,1-.52-0.52v-2.63c-0.44-.26-0.89-0.51-1.35-0.74v3.37a0.52,0.52,0,0,1-.52.52,0.52,0.52,0,0,1-.52-0.52v-2.37h-0.17v8.46a0.69,0.69,0,0,1-.69.69,0.69,0.69,0,0,1-.69-0.69v-4.06H-200v4.06a0.69,0.69,0,0,1-.69.69,0.69,0.69,0,0,1-.69-0.69v-8.46h-0.17v2.37a0.52,0.52,0,0,1-.52.52,0.52,0.52,0,0,1-.52-0.52v-3.62a1,1,0,0,1,1-1h1a20.93,20.93,0,0,0-5-.87,1.27,1.27,0,0,1-1,.58,1.27,1.27,0,0,1-1.06-.59,20.84,20.84,0,0,0-5,.88h1.06a1,1,0,0,1,1,1v3.62a0.52,0.52,0,0,1-.52.52,0.52,0.52,0,0,1-.52-0.52v-2.37h-0.17v8.46a0.69,0.69,0,0,1-.69.69,0.69,0.69,0,0,1-.69-0.69v-4.06h-0.13v4.06a0.69,0.69,0,0,1-.69.69,0.69,0.69,0,0,1-.69-0.69v-8.46h-0.17v2.37a0.52,0.52,0,0,1-.52.52,0.52,0.52,0,0,1-.52-0.52v-3.38c-0.46.23-.91,0.47-1.35,0.73v2.65a0.52,0.52,0,0,1-.52.52,0.52,0.52,0,0,1-.52-0.52v-2l-0.17.12v8a0.69,0.69,0,0,1-.69.69,0.69,0.69,0,0,1-.69-0.69v-4.06h-0.13v4.06a0.69,0.69,0,0,1-.69.69,0.69,0.69,0,0,1-.69-0.69v-5.62a21.1,21.1,0,0,0-3.77,5v0.57a0.68,0.68,0,0,1-.61.67c-0.23.5-.43,1-0.62,1.54a1.28,1.28,0,0,1,1.08,1.25,1.29,1.29,0,0,1-1.29,1.29,1.28,1.28,0,0,1-.51-0.1c0,0.13-.08.26-0.1,0.4h2.22a1,1,0,0,1,1,1v3.62a0.52,0.52,0,0,1-.52.52,0.52,0.52,0,0,1-.52-0.52v-2.37h-0.17v8.46a0.69,0.69,0,0,1-.69.69,0.69,0.69,0,0,1-.69-0.69v-4.06h-0.13v3.95a20.94,20.94,0,0,0,4.07,7.28v-1.09a1,1,0,0,1,1-1h3.23a1,1,0,0,1,1,1v3.62a0.52,0.52,0,0,1-.52.52,0.52,0.52,0,0,1-.52-0.52V3158h-0.17v3.52a21,21,0,0,0,3.77,2.05V3158h-0.17v2.37a0.52,0.52,0,0,1-.52.52,0.52,0.52,0,0,1-.52-0.52v-3.62a1,1,0,0,1,1-1h3.23a1,1,0,0,1,1,1v3.62a0.52,0.52,0,0,1-.52.52,0.52,0.52,0,0,1-.52-0.52V3158h-0.17v6.52a21,21,0,0,0,3.77.6V3158h-0.17v2.37a0.52,0.52,0,0,1-.52.52,0.52,0.52,0,0,1-.52-0.52v-3.62a1,1,0,0,1,1-1h3.23a1,1,0,0,1,1,1v3.62a0.52,0.52,0,0,1-.52.52,0.52,0.52,0,0,1-.52-0.52V3158h-0.17v7.12a20.93,20.93,0,0,0,3.77-.6V3158h-0.17v2.37a0.52,0.52,0,0,1-.52.52,0.52,0.52,0,0,1-.52-0.52v-3.62a1,1,0,0,1,1-1h3.23a1,1,0,0,1,1,1v3.62a0.52,0.52,0,0,1-.52.52,0.52,0.52,0,0,1-.52-0.52V3158h-0.17v5.57a20.93,20.93,0,0,0,3.77-2.05V3158h-0.17v2.37a0.52,0.52,0,0,1-.52.52,0.52,0.52,0,0,1-.52-0.52v-3.62a1,1,0,0,1,1-1h3.23a1,1,0,0,1,1,1v1.09a20.94,20.94,0,0,0,4.07-7.28v-3.95h-0.13v4.06a0.69,0.69,0,0,1-.69.69,0.69,0.69,0,0,1-.69-0.69v-8.46h-0.17v2.37a0.52,0.52,0,0,1-.52.52,0.52,0.52,0,0,1-.52-0.52v-3.62a1,1,0,0,1,1-1H-186c0-.13-0.07-0.26-0.1-0.4a1.28,1.28,0,0,1-.5.1,1.29,1.29,0,0,1-1.29-1.29,1.28,1.28,0,0,1,1.07-1.25c-0.19-.53-0.4-1-0.63-1.55A0.68,0.68,0,0,1-188,3134.84Zm-31.81,20.55a1.29,1.29,0,0,1-1.29-1.29,1.29,1.29,0,0,1,1.29-1.29,1.29,1.29,0,0,1,1.29,1.29A1.29,1.29,0,0,1-219.86,3155.4Zm6.65,0a1.29,1.29,0,0,1-1.29-1.29,1.29,1.29,0,0,1,1.29-1.29,1.29,1.29,0,0,1,1.29,1.29A1.29,1.29,0,0,1-213.2,3155.4Zm6.65,0a1.29,1.29,0,0,1-1.29-1.29,1.29,1.29,0,0,1,1.29-1.29,1.29,1.29,0,0,1,1.29,1.29A1.29,1.29,0,0,1-206.55,3155.4Zm2.65-26.65a0.52,0.52,0,0,1-.52.52,0.52,0.52,0,0,1-.52-0.52v-2.37h-0.17v8.46a0.69,0.69,0,0,1-.69.69,0.69,0.69,0,0,1-.69-0.69v-4.06h-0.13v4.06a0.69,0.69,0,0,1-.69.69,0.69,0.69,0,0,1-.69-0.69v-8.46h-0.17v2.37a0.52,0.52,0,0,1-.52.52,0.52,0.52,0,0,1-.52-0.52v-3.62a1,1,0,0,1,1-1h3.23a1,1,0,0,1,1,1v3.62Zm4,26.65a1.29,1.29,0,0,1-1.29-1.29,1.29,1.29,0,0,1,1.29-1.29,1.29,1.29,0,0,1,1.29,1.29A1.29,1.29,0,0,1-199.9,3155.4Zm6.65,0a1.29,1.29,0,0,1-1.29-1.29,1.29,1.29,0,0,1,1.29-1.29,1.29,1.29,0,0,1,1.29,1.29A1.29,1.29,0,0,1-193.25,3155.4Z" transform="translate(228.49 -3122.16)"/><path class="cls-2" d="M-194.87,3126.38v0.39l0.17,0.12v-0.5h-0.17Z" transform="translate(228.49 -3122.16)"/><path class="cls-2" d="M-218.24,3126.38h-0.17v0.46l0.17-.12v-0.34Z" transform="translate(228.49 -3122.16)"/><path class="cls-3" d="M-221.47,3158v1l0.17,0.17V3158h-0.17Z" transform="translate(228.49 -3122.16)"/><path class="cls-3" d="M-213.27,3162.37v1.68l0.13,0v-1.73h-0.13Z" transform="translate(228.49 -3122.16)"/><path class="cls-3" d="M-200,3162.37v1.73l0.13,0v-1.68H-200Z" transform="translate(228.49 -3122.16)"/><path class="cls-3" d="M-191.81,3158v1.14l0.17-.17v-1h-0.17Z" transform="translate(228.49 -3122.16)"/><path class="cls-3" d="M-206.62,3162.37v2.8h0.13v-2.8h-0.13Z" transform="translate(228.49 -3122.16)"/><path class="cls-4" d="M-218.24,3158v2.37a0.52,0.52,0,0,0,.52.52,0.52,0.52,0,0,0,.52-0.52v-3.62a1,1,0,0,0-1-1h-3.23a1,1,0,0,0-1,1v1.09c0.33,0.39.67,0.77,1,1.14v-1h0.17v1.14a21.12,21.12,0,0,0,2.89,2.38V3158h0.17Z" transform="translate(228.49 -3122.16)"/><circle class="cls-4" cx="8.63" cy="31.95" r="1.29"/><path class="cls-4" d="M-211.59,3158v2.37a0.52,0.52,0,0,0,.52.52,0.52,0.52,0,0,0,.52-0.52v-3.62a1,1,0,0,0-1-1h-3.23a1,1,0,0,0-1,1v3.62a0.52,0.52,0,0,0,.52.52,0.52,0.52,0,0,0,.52-0.52V3158h0.17v5.57c0.45,0.19.91,0.35,1.38,0.5v-1.68h0.13v1.73c0.45,0.15.91,0.27,1.38,0.39V3158h0.17Z" transform="translate(228.49 -3122.16)"/><circle class="cls-4" cx="15.29" cy="31.95" r="1.29"/><path class="cls-4" d="M-204.94,3158v2.37a0.52,0.52,0,0,0,.52.52,0.52,0.52,0,0,0,.52-0.52v-3.62a1,1,0,0,0-1-1h-3.23a1,1,0,0,0-1,1v3.62a0.52,0.52,0,0,0,.52.52,0.52,0.52,0,0,0,.52-0.52V3158H-208v7.12c0.46,0,.91.07,1.38,0.07v-2.8h0.13v2.8c0.47,0,.92,0,1.38-0.07V3158h0.17Z" transform="translate(228.49 -3122.16)"/><circle class="cls-4" cx="21.94" cy="31.95" r="1.29"/><path class="cls-4" d="M-198.29,3158v2.37a0.52,0.52,0,0,0,.52.52,0.52,0.52,0,0,0,.52-0.52v-3.62a1,1,0,0,0-1-1h-3.23a1,1,0,0,0-1,1v3.62a0.52,0.52,0,0,0,.52.52,0.52,0.52,0,0,0,.52-0.52V3158h0.17v6.52c0.46-.12.93-0.24,1.38-0.39v-1.73h0.13v1.68c0.46-.16.93-0.32,1.38-0.5V3158h0.17Z" transform="translate(228.49 -3122.16)"/><circle class="cls-4" cx="28.59" cy="31.95" r="1.29"/><path class="cls-4" d="M-191.64,3155.69h-3.23a1,1,0,0,0-1,1v3.62a0.52,0.52,0,0,0,.52.52,0.52,0.52,0,0,0,.52-0.52V3158h0.17v3.52a21.12,21.12,0,0,0,2.89-2.38V3158h0.17v1c0.36-.36.7-0.75,1-1.14v-1.09A1,1,0,0,0-191.64,3155.69Z" transform="translate(228.49 -3122.16)"/><circle class="cls-4" cx="35.24" cy="31.95" r="1.29"/><path class="cls-4" d="M-226.44,3146.57v4.06a0.69,0.69,0,0,0,.69.69,0.69,0.69,0,0,0,.69-0.69v-8.46h0.17v2.37a0.52,0.52,0,0,0,.52.52,0.52,0.52,0,0,0,.52-0.52v-3.62a1,1,0,0,0-1-1h-2.22a21,21,0,0,0-.44,4.28,21,21,0,0,0,1,6.35v-3.95h0.13Z" transform="translate(228.49 -3122.16)"/><path class="cls-4" d="M-225.21,3138.31a1.28,1.28,0,0,0-1.08-1.25,20.77,20.77,0,0,0-.72,2.44,1.28,1.28,0,0,0,.51.1A1.29,1.29,0,0,0-225.21,3138.31Z" transform="translate(228.49 -3122.16)"/><path class="cls-4" d="M-225.06,3134.84v-0.57c-0.22.41-.41,0.82-0.61,1.24A0.68,0.68,0,0,0-225.06,3134.84Z" transform="translate(228.49 -3122.16)"/><path class="cls-4" d="M-217.72,3129.27a0.52,0.52,0,0,0,.52-0.52v-2.65c-0.35.21-.7,0.4-1,0.63v2A0.52,0.52,0,0,0-217.72,3129.27Z" transform="translate(228.49 -3122.16)"/><path class="cls-4" d="M-220.61,3135.53a0.69,0.69,0,0,0,.69-0.69v-4.06h0.13v4.06a0.69,0.69,0,0,0,.69.69,0.69,0.69,0,0,0,.69-0.69v-8a21.11,21.11,0,0,0-2.89,2.38v5.62A0.69,0.69,0,0,0-220.61,3135.53Z" transform="translate(228.49 -3122.16)"/><path class="cls-4" d="M-215.34,3129.27a0.52,0.52,0,0,0,.52-0.52v-2.37h0.17v8.46a0.69,0.69,0,0,0,.69.69,0.69,0.69,0,0,0,.69-0.69v-4.06h0.13v4.06a0.69,0.69,0,0,0,.69.69,0.69,0.69,0,0,0,.69-0.69v-8.46h0.17v2.37a0.52,0.52,0,0,0,.52.52,0.52,0.52,0,0,0,.52-0.52v-3.62a1,1,0,0,0-1-1h-1.06a21,21,0,0,0-3.2,1.27v3.38A0.52,0.52,0,0,0-215.34,3129.27Z" transform="translate(228.49 -3122.16)"/><path class="cls-4" d="M-204.94,3124.1h-3.23a1,1,0,0,0-1,1v3.62a0.52,0.52,0,0,0,.52.52,0.52,0.52,0,0,0,.52-0.52v-2.37H-208v8.46a0.69,0.69,0,0,0,.69.69,0.69,0.69,0,0,0,.69-0.69v-4.06h0.13v4.06a0.69,0.69,0,0,0,.69.69,0.69,0.69,0,0,0,.69-0.69v-8.46h0.17v2.37a0.52,0.52,0,0,0,.52.52,0.52,0.52,0,0,0,.52-0.52v-3.62A1,1,0,0,0-204.94,3124.1Z" transform="translate(228.49 -3122.16)"/><path class="cls-4" d="M-206.55,3123.8a1.27,1.27,0,0,0,1-.58c-0.35,0-.69-0.05-1-0.05s-0.71,0-1.06,0A1.27,1.27,0,0,0-206.55,3123.8Z" transform="translate(228.49 -3122.16)"/><path class="cls-4" d="M-202.55,3125.13v3.62a0.52,0.52,0,0,0,.52.52,0.52,0.52,0,0,0,.52-0.52v-2.37h0.17v8.46a0.69,0.69,0,0,0,.69.69,0.69,0.69,0,0,0,.69-0.69v-4.06h0.13v4.06a0.69,0.69,0,0,0,.69.69,0.69,0.69,0,0,0,.69-0.69v-8.46h0.17v2.37a0.52,0.52,0,0,0,.52.52,0.52,0.52,0,0,0,.52-0.52v-3.37a20.86,20.86,0,0,0-3.29-1.29h-1A1,1,0,0,0-202.55,3125.13Z" transform="translate(228.49 -3122.16)"/><path class="cls-4" d="M-195.38,3129.27a0.52,0.52,0,0,0,.52-0.52v-2q-0.51-.34-1-0.65v2.63A0.52,0.52,0,0,0-195.38,3129.27Z" transform="translate(228.49 -3122.16)"/><path class="cls-4" d="M-194.69,3134.84a0.69,0.69,0,0,0,.69.69,0.69,0.69,0,0,0,.69-0.69v-4.06h0.13v4.06a0.69,0.69,0,0,0,.69.69,0.69,0.69,0,0,0,.69-0.69v-5.57a21.12,21.12,0,0,0-2.89-2.39v8Z" transform="translate(228.49 -3122.16)"/><path class="cls-4" d="M-189.25,3140.93v3.62a0.52,0.52,0,0,0,.52.52,0.52,0.52,0,0,0,.52-0.52v-2.37H-188v8.46a0.69,0.69,0,0,0,.69.69,0.69,0.69,0,0,0,.69-0.69v-4.06h0.13v3.95a21,21,0,0,0,1-6.35,20.93,20.93,0,0,0-.44-4.28h-2.22A1,1,0,0,0-189.25,3140.93Z" transform="translate(228.49 -3122.16)"/><path class="cls-4" d="M-187.89,3138.31a1.29,1.29,0,0,0,1.29,1.29,1.28,1.28,0,0,0,.5-0.1,20.64,20.64,0,0,0-.73-2.44A1.28,1.28,0,0,0-187.89,3138.31Z" transform="translate(228.49 -3122.16)"/><path class="cls-4" d="M-188,3134.84a0.68,0.68,0,0,0,.59.67c-0.19-.41-0.38-0.82-0.59-1.21v0.54Z" transform="translate(228.49 -3122.16)"/><path class="cls-4" d="M-222.5,3140.93v3.62a0.52,0.52,0,0,0,.52.52h0a0.52,0.52,0,0,0,.52-0.52v-2.37h0.17v8.46a0.69,0.69,0,0,0,.69.69h0a0.69,0.69,0,0,0,.69-0.69v-4.06h0.13v4.06a0.69,0.69,0,0,0,.69.69h0a0.69,0.69,0,0,0,.69-0.69v-8.46h0.17v2.37a0.52,0.52,0,0,0,.52.52h0a0.52,0.52,0,0,0,.52-0.52v-3.62a1,1,0,0,0-1-1h-3.23A1,1,0,0,0-222.5,3140.93Z" transform="translate(228.49 -3122.16)"/><circle class="cls-4" cx="8.63" cy="16.15" r="1.29"/><path class="cls-4" d="M-215.85,3140.93v3.62a0.52,0.52,0,0,0,.52.52h0a0.52,0.52,0,0,0,.52-0.52v-2.37h0.17v8.46a0.69,0.69,0,0,0,.69.69h0a0.69,0.69,0,0,0,.69-0.69v-4.06h0.13v4.06a0.69,0.69,0,0,0,.69.69h0a0.69,0.69,0,0,0,.69-0.69v-8.46h0.17v2.37a0.52,0.52,0,0,0,.52.52h0a0.52,0.52,0,0,0,.52-0.52v-3.62a1,1,0,0,0-1-1h-3.23A1,1,0,0,0-215.85,3140.93Z" transform="translate(228.49 -3122.16)"/><circle class="cls-4" cx="15.29" cy="16.15" r="1.29"/><path class="cls-4" d="M-209.2,3140.93v3.62a0.52,0.52,0,0,0,.52.52h0a0.52,0.52,0,0,0,.52-0.52v-2.37H-208v8.46a0.69,0.69,0,0,0,.69.69h0a0.69,0.69,0,0,0,.69-0.69v-4.06h0.13v4.06a0.69,0.69,0,0,0,.69.69h0a0.69,0.69,0,0,0,.69-0.69v-8.46h0.17v2.37a0.52,0.52,0,0,0,.52.52h0a0.52,0.52,0,0,0,.52-0.52v-3.62a1,1,0,0,0-1-1h-3.23A1,1,0,0,0-209.2,3140.93Z" transform="translate(228.49 -3122.16)"/><circle class="cls-4" cx="21.94" cy="16.15" r="1.29"/><path class="cls-4" d="M-202.55,3140.93v3.62a0.52,0.52,0,0,0,.52.52h0a0.52,0.52,0,0,0,.52-0.52v-2.37h0.17v8.46a0.69,0.69,0,0,0,.69.69h0a0.69,0.69,0,0,0,.69-0.69v-4.06h0.13v4.06a0.69,0.69,0,0,0,.69.69h0a0.69,0.69,0,0,0,.69-0.69v-8.46h0.17v2.37a0.52,0.52,0,0,0,.52.52h0a0.52,0.52,0,0,0,.52-0.52v-3.62a1,1,0,0,0-1-1h-3.23A1,1,0,0,0-202.55,3140.93Z" transform="translate(228.49 -3122.16)"/><circle class="cls-4" cx="28.59" cy="16.15" r="1.29"/><path class="cls-4" d="M-195.9,3140.93v3.62a0.52,0.52,0,0,0,.52.52h0a0.52,0.52,0,0,0,.52-0.52v-2.37h0.17v8.46a0.69,0.69,0,0,0,.69.69h0a0.69,0.69,0,0,0,.69-0.69v-4.06h0.13v4.06a0.69,0.69,0,0,0,.69.69h0a0.69,0.69,0,0,0,.69-0.69v-8.46h0.17v2.37a0.52,0.52,0,0,0,.52.52h0a0.52,0.52,0,0,0,.52-0.52v-3.62a1,1,0,0,0-1-1h-3.23A1,1,0,0,0-195.9,3140.93Z" transform="translate(228.49 -3122.16)"/><circle class="cls-4" cx="35.24" cy="16.15" r="1.29"/><circle class="cls-5" cx="22" cy="22" r="21"/></svg>