<svg xmlns="http://www.w3.org/2000/svg" viewBox="0 0 118 118"><defs><style>.cls-1{isolation:isolate;}.cls-2{mix-blend-mode:hard-light;}.cls-3{fill:#fff;}</style></defs><title>NAVLogoStroke</title><g class="cls-1"><g id="Layer_1" data-name="Layer 1"><g class="cls-2"><path class="cls-3" d="M5546.81,3334.29a2.39,2.39,0,0,1,2.38,2.39v2.38h-4.08a2.38,2.38,0,1,1,0-4.77h1.7m0-2h-1.7a4.38,4.38,0,1,0,0,8.77h6.08v-4.38a4.39,4.39,0,0,0-4.38-4.39h0Z" transform="translate(-5486.89 -3267.08)"/><path class="cls-3" d="M5545.89,3269.08a57,57,0,1,1-37.8,99.66,120.1,120.1,0,0,1-8.76-9.78,57,57,0,0,1,46.56-89.87m33.06,64.88L5575,3322l0-.06,0-.06a3.08,3.08,0,0,0-2.84-1.89H5552a2.81,2.81,0,0,0-2.66,1.92,11.71,11.71,0,0,0-6.22-1.92,13.74,13.74,0,0,0-11.63,5.83,9,9,0,0,0-.92-1.56,9.65,9.65,0,0,0-2.76-2.55l0,0,0,0c-2.15-1.26-4.12-1.68-7.82-1.68h-4a3.09,3.09,0,0,0-2.82,1.84,2.8,2.8,0,0,0-2.63-1.84h-9.33a3.09,3.09,0,0,0-2.84,1.89l-3.81,9.45a2.85,2.85,0,0,0,.2,2.61,2.53,2.53,0,0,0,2.15,1.08h1.58v16a2.81,2.81,0,0,0,2.8,2.8h9.25a2.8,2.8,0,0,0,2.8-2.8v-16h1.6c1.94,0,2.07.06,2.47,0.24l0.07,0,0.07,0,0.1,0.05h0c0.28,0.53.38,1.59,0.38,4.33V3351a2.81,2.81,0,0,0,2.8,2.8h8.86a3.55,3.55,0,0,0,3.25-2.24l0.77-1.89a17.06,17.06,0,0,0,11.6,4.13h1.17a3.57,3.57,0,0,0,3-1.76,2.81,2.81,0,0,0,2.6,1.76h9a3.57,3.57,0,0,0,3.25-2.24c1.6-4,2.5-6.21,3-7.52l3,7.51a3.56,3.56,0,0,0,3.25,2.25h10.69a3.56,3.56,0,0,0,3.26-2.24l11.26-27.89a2.61,2.61,0,0,0-.2-2.53,2.91,2.91,0,0,0-2.4-1.19h-10.49a3.07,3.07,0,0,0-2.83,1.9l0,0.06,0,0.06-3.9,11.95m-14.9,2,1.25,3.1H5564V3336m-18.16-68.88a59,59,0,0,0-48.2,93,118.24,118.24,0,0,0,9.07,10.13,59,59,0,1,0,39.13-103.15h0Zm33.06,73.32,5.81-17.77a1.09,1.09,0,0,1,1-.64h10.49s1.13,0,.74,1l-11.26,27.89a1.58,1.58,0,0,1-1.4,1H5573.6a1.57,1.57,0,0,1-1.4-1L5562,3325.64v15.42h3.23s0.94,0,.81.75h0c0,0.07-3.63,9.05-3.63,9.05a1.58,1.58,0,0,1-1.4,1h-9a0.8,0.8,0,0,1-.8-0.8v-8.66l-3.42,8.47a1.58,1.58,0,0,1-1.41,1h-1.17c-5.34,0-9.64-2.19-12.25-5.85l-2,4.86a1.57,1.57,0,0,1-1.4,1h-8.86a0.8,0.8,0,0,1-.8-0.8v-11.33c0-3.25-.12-4.35-0.61-5.27a2.28,2.28,0,0,0-1.16-1c-0.81-.37-1.24-0.43-3.31-0.43h-3.6v18a0.8,0.8,0,0,1-.8.8h-9.25a0.8,0.8,0,0,1-.8-0.8v-18h-3.58c-0.87,0-.49-0.95-0.49-0.95l3.81-9.45a1.11,1.11,0,0,1,1-.64h9.33a0.81,0.81,0,0,1,.8.8v8.92l3.67-9.09a1.11,1.11,0,0,1,1-.64h4c3.43,0,5,.37,6.81,1.41a7.7,7.7,0,0,1,2.21,2c1.19,1.63,1.56,3.22,1.64,7.65,1.39-6.69,5.86-11.09,12.54-11.09,3,0,8.07,2,8.07,6.83v-6a0.81,0.81,0,0,1,.8-0.8h20.17a1.1,1.1,0,0,1,1,.64l5.8,17.77h0Z" transform="translate(-5486.89 -3267.08)"/></g></g></g></svg>