<svg id="Figure" xmlns="http://www.w3.org/2000/svg" viewBox="0 0 44 44"><defs><style>.cls-1{fill:#f7935b;stroke:#e96f4e;stroke-miterlimit:10;stroke-width:2px;}.cls-2{fill:#fff;}</style></defs><title>SSBInternasjonal</title><circle class="cls-1" cx="22" cy="22" r="21"/><path class="cls-2" d="M-199.92,3200.91a19,19,0,0,1,10.09,2.42,17.34,17.34,0,0,1,6.25,6.55,17.12,17.12,0,0,1-3,20.09,17.07,17.07,0,0,1-20.3,2.77c-5.66-3.21-9.44-9.81-8.62-16.36a17.57,17.57,0,0,1,4.87-10.44,16.91,16.91,0,0,1,4.82-3.4,16.37,16.37,0,0,1,2.83-1.05,24.72,24.72,0,0,0,3.08-.59C-199.05,3200.91-200.23,3201-199.92,3200.91Zm-6,7.7a0.86,0.86,0,0,1-.7.19c-0.25-.21.34-0.71,0.15-0.89s-1.64,1.06-1.74,1.37a1.59,1.59,0,0,0,.14,1.32,7.73,7.73,0,0,0,.75,1.29,1.27,1.27,0,0,1,.6-0.89,0.62,0.62,0,0,0,.31-0.38,0.45,0.45,0,0,1-.15-0.35c0.07-.21.3-0.42,0.4-0.63a1,1,0,0,1,.24-0.59,0.87,0.87,0,0,1,.58.24c0.39,0.31.19,0.28,0.22,0.64,0,0.2-.26.38,0.09,0.4a3.39,3.39,0,0,0,.57-0.52s0.29,1.24.34,1.47a6.48,6.48,0,0,1,.1,1.08,0.8,0.8,0,0,0,.07.54,0.26,0.26,0,0,1,.25.07c0.09,0.38-.08.83-0.64,0.64a0.44,0.44,0,0,1-.34-0.49,0.88,0.88,0,0,0,.16-0.59,0.51,0.51,0,0,1-.26.14l-0.81.06c-0.27.13-.12,0,0,0.32s0.67,0.43.56,0.77a1.89,1.89,0,0,1-1.11.44,0.88,0.88,0,0,0-.8.52c-0.22.24-.56,0.31-0.78,0.58s-0.34.71-.62,1a2.74,2.74,0,0,0-.81.88c0,0.21.53,2-.2,0.84a1,1,0,0,0-.65-0.78,4.1,4.1,0,0,0-1,.27,0.93,0.93,0,0,0-.91.31,2,2,0,0,0-.17,1.46c0.45,1.28,1.16,0,1.81-.09a5,5,0,0,0-.27,1c0.14,0.37.63,0,.86,0.19a7.79,7.79,0,0,1,.15,1c0.22,0.32.2,0.23,0.57,0.23a1.62,1.62,0,0,0,.94-0.29,0.69,0.69,0,0,1,.87-0.14c0.31,0.09.65,0.08,1,.16a2.47,2.47,0,0,1,1.08.66,4,4,0,0,0,.77.29,2.37,2.37,0,0,1,.55.48,8.17,8.17,0,0,0,1.67.91,5.33,5.33,0,0,1,.74.38,0.72,0.72,0,0,1,.34,1,14.29,14.29,0,0,1-.36,2.48,2.17,2.17,0,0,0-.92,1.15,6.72,6.72,0,0,1-.18.93,2.58,2.58,0,0,0-.37.5c-0.06.21,0,.7,0,1a4.11,4.11,0,0,0-.23.91,3.86,3.86,0,0,0,.44,1.22,2.92,2.92,0,0,0,1.55.41,18.75,18.75,0,0,0,2.13.2,14.48,14.48,0,0,0,3.74-.36,16,16,0,0,0,12-11.59c0.29-1.18.85-2.57-.13-3.53s-2.74-.52-3.91-1.42c0.19,0.85,1.11.85,1.72,1.24,0.42,0.27.38,0.47,0,.89a3.05,3.05,0,0,1-.89.69c-0.26.15-1.69,0.56-1.59,0.87,0.22,0.67,1.42-.68,1.36.31,0,0.71-1.15,1.69-1.53,2.3a3.25,3.25,0,0,0-.5,1,6.82,6.82,0,0,1,0,1.18,7.62,7.62,0,0,1-.64,1,8.67,8.67,0,0,0-.36.79,3.59,3.59,0,0,1-1.79,2c-1.06.4-.95-0.36-1.23-1.18a4.64,4.64,0,0,1-.51-2.31,2.8,2.8,0,0,0-.34-2,2.91,2.91,0,0,1-.25-0.59c0-.16.14-0.48,0.1-0.61-0.1-.36-0.12-0.24-0.49-0.37a3.14,3.14,0,0,0-1.63-.06,1.78,1.78,0,0,1-1.82-.79,2.32,2.32,0,0,1-.66-2c0-.95.65-1.27,1.09-2a5,5,0,0,0,.6-1c0.09-.49-0.31-0.34-0.46-0.77a1.36,1.36,0,0,1,.38-1.13c0.21-.15.51,0,0.7-0.15,0.37-.29-0.26-0.55-0.22-0.86s0.51-.28.79-0.56c0.74-.74-0.76.06-1,0.08,0-.37.31-0.92,0.28-1.23s-0.73-.68-0.19-1c0.35-.22.79,1.49,1,1.68a7.8,7.8,0,0,0,1.33-.72,4.56,4.56,0,0,0,1.27-.18,0.86,0.86,0,0,0,.29-0.6c0.1-.26.46-0.51,0.53-0.7,0.14-.37-0.08-0.17-0.36-0.39-0.65-.51-0.06-0.72-0.2-1.44a1.05,1.05,0,0,0-.57.84,2.83,2.83,0,0,0,.09,1.08c0,0.51-.49,1.14-0.91.79a3.21,3.21,0,0,0-.42-0.49,0.78,0.78,0,0,1-.44,0,1.25,1.25,0,0,1-.2-1,2,2,0,0,1,.61-0.44c0.77-.71.61-3.15,2.43-2.54,0.1,0,.45.39,0.63,0.47a5.46,5.46,0,0,0,.91.5c0.6,0.1,1.38-.8,1.88-1a2.62,2.62,0,0,1-1.26-.36,2.85,2.85,0,0,1-.12-1.06c-0.09-.73-0.57-0.83-1.22-1.19a16.56,16.56,0,0,0-3-1.31,11.68,11.68,0,0,0-2.28-.5c-0.14,0-.78-0.17-0.6.21a3.73,3.73,0,0,1,.58.28,2.67,2.67,0,0,1-.59.85,3.41,3.41,0,0,0-.35,1.06,7.25,7.25,0,0,1-.16.81,6.33,6.33,0,0,0-.6.93,1.71,1.71,0,0,1,0,.91,1.94,1.94,0,0,1-.7.61,7,7,0,0,0-2,1c-0.26.25-.63,1.32-1,1.32-0.68,0-.6-1.57-0.51-2s0.48-.65.56-0.94-0.12-.49-0.07-0.76c0.16-.8.45-0.88-0.07-1.59a0.78,0.78,0,0,1-.38-0.69,2.08,2.08,0,0,1,.31-0.84c0.46-.4,1.07-0.13,1.1-1-0.47.44-1.13,0.48-1.59,1-0.31.34-.61,1.3-1.21,0.89s0.26-.71.07-1.06-1.17,0-1.4.12a0.66,0.66,0,0,1-.06,1.07c-0.27-.52-0.22-0.7-0.8-0.59a1.63,1.63,0,0,0-.71.3,1.3,1.3,0,0,0,.06.37,5.77,5.77,0,0,1-.68,1.17c-0.24.35-.67,0.47-0.89,0.75s-0.2.51,0.25,0.52a2.32,2.32,0,0,0,1-.78c0.25-.32.37-0.72,0.62-1.06,0.46-.62.46-0.48,1.22-0.31,0,0-.82.71-0.94,0.91a3.38,3.38,0,0,0-.36,1.48,1.62,1.62,0,0,0,.66-0.62c0.12-.31-0.11-0.58,0-0.9,0.21-.56,1.39-1.13,1.75-0.39,0.13,0.27-.08.58,0.06,0.87a1.12,1.12,0,0,1,.28.9,0.29,0.29,0,0,0-.13.47,2.15,2.15,0,0,0,.12.4,0.47,0.47,0,0,1-.72.38c-0.06.35,0.27,0.75-.18,1a0.57,0.57,0,0,1-.75-0.39c-0.32-.71,1.07-1.62.42-2.21s-0.78.85-1,1.12a1.25,1.25,0,0,1-.35.23,0.87,0.87,0,0,0-.25.05A1.18,1.18,0,0,0-206,3208.62Zm-8.1,13.1a16.72,16.72,0,0,0,3.59,6.81,16,16,0,0,0,2.89,2.54c0.5,0.35,3.4,2.28,3.81,1.86,0.2-.21-1-2-1.1-2.28-0.17-.45-0.16-0.84-0.36-1.29a9,9,0,0,1-.41-1.19,2.5,2.5,0,0,0-1.07-1.68,4.63,4.63,0,0,1-1.89-2.05,1.91,1.91,0,0,1,.18-1.27,0.85,0.85,0,0,0-.06-1,1,1,0,0,0-.28-0.16q0,0.29-.22.14l-0.27-.15a4,4,0,0,1-1-.85c-0.7-.52-1.75-0.55-2.53-1s-1.17-1.84-1.69-2.62a9.48,9.48,0,0,0,.36,1.45c-0.43,0-.41-0.47-0.32.35a11.17,11.17,0,0,0,.41,2.37C-214,3221.8-214.15,3221.44-214.06,3221.71Zm19.6-6.12a0.82,0.82,0,0,1,1,.44,1.38,1.38,0,0,0,.26.51,2.85,2.85,0,0,0,1,.43c-0.06-.88.64-0.4,1.22-0.32a1.08,1.08,0,0,0,1.33-.52c0.16-.37.14-0.38-0.11-0.47-0.07,0-.38.07-0.49,0a2.07,2.07,0,0,1-.55-0.33c-0.07,0-.83-0.65-0.94-0.45s0.57,0.27.31,0.66c-0.36.55-.86-0.61-1.12-0.54a3.27,3.27,0,0,1-.37.69,0.29,0.29,0,0,1-.4,0c-0.26-.31.1-0.17,0.11-0.37s0.21-.14.08-0.39a0.84,0.84,0,0,0-.43-0.25,1.29,1.29,0,0,0-1-.12c-0.69.26-.73,1.27-1.46,1.42,0.55,0,1-.39,1.58-0.39h0Zm6.37,4.31a5.19,5.19,0,0,0-1-2c-0.18-.32-0.55-0.92-0.56-0.2a7.38,7.38,0,0,0,.81,1.65c0.15,0.3.54,1,.73,0.53C-188.08,3219.7-188.13,3220-188.1,3219.9Z" transform="translate(220.61 -3195.91)"/></svg>