<svg id="Layer_1" data-name="Layer 1" xmlns="http://www.w3.org/2000/svg" viewBox="0 0 118 118"><defs><style>.cls-1{fill:#fff;}</style></defs><title>SSBLogoStroke</title><path class="cls-1" d="M7001.49,3256.4a56.49,56.49,0,0,1,34.31,11.48,57.52,57.52,0,0,1,19.79,27.54L7007,3322.18l-5.68-25.4-0.58-2.58-2.32,1.25-53,28.54a57,57,0,0,1,56-67.6m0-2a59,59,0,0,0-57.42,72.62l55.33-29.81,6.27,28,52.33-28.84a59,59,0,0,0-56.5-42h0Z" transform="translate(-6942.49 -3254.4)"/><path class="cls-1" d="M7057.66,3303.68a57,57,0,0,1-56.17,66.72,56.51,56.51,0,0,1-34.15-11.36,57.54,57.54,0,0,1-19.82-27.24l47.28-25.6,6.08,26.13,0.6,2.58,2.32-1.29,53.86-29.95m1.43-3.08-56.26,31.28-6.67-28.68-51,27.64a59,59,0,0,0,114-30.24h0Z" transform="translate(-6942.49 -3254.4)"/></svg>