<svg id="Layer_1" data-name="Layer 1" xmlns="http://www.w3.org/2000/svg" viewBox="0 0 44 44"><defs><style>.cls-1{fill:#f7935b;stroke:#e96f4e;stroke-width:2px;}.cls-1,.cls-2{stroke-miterlimit:10;}.cls-2{fill:#e0d2d3;stroke:#fff;}</style></defs><title>SSBTelefon</title><circle class="cls-1" cx="22" cy="22" r="21"/><path class="cls-2" d="M-294.71,3208.36a2.18,2.18,0,0,0-2.78.38l-1,1.26a1.83,1.83,0,0,1-1.45.54,13,13,0,0,1-8.75-8.87,1.83,1.83,0,0,1,.47-1.45l1.26-1a2.18,2.18,0,0,0,.38-2.78,27.79,27.79,0,0,0-3.35-4.74,1.89,1.89,0,0,0-2.49-.41h0a10.42,10.42,0,0,0-2.56,2.08h0a3.41,3.41,0,0,0-.88,3.16h0a33.79,33.79,0,0,0,10.29,15.06,40.1,40.1,0,0,0,10.64,5.87h0a3.41,3.41,0,0,0,3.16-.88h0a10.23,10.23,0,0,0,2.08-2.56h0a1.89,1.89,0,0,0-.41-2.49A27.41,27.41,0,0,0-294.71,3208.36Z" transform="translate(324.67 -3182.27)"/></svg>